<svg version="1.2" xmlns="http://www.w3.org/2000/svg" viewBox="0 0 325 324" width="325" height="324"><style>.a{fill:#f8b62d}.b{fill:#231815}</style><path fill-rule="evenodd" class="a" d="m161 246.8c-46.9 0-84.8-37.9-84.8-84.8 0-46.9 37.9-84.8 84.8-84.8 46.9 0 84.8 37.9 84.8 84.8 0 46.9-37.9 84.8-84.8 84.8z"/><path class="b" d="m238.3 162c-0.3 31.9-20.3 61.7-50.6 72.6-7.5 2.7-15.4 4.2-23.4 4.5-8 0.3-16-0.6-23.7-2.7-7.7-2.1-15-5.4-21.7-9.7-6.7-4.3-12.7-9.7-17.8-15.8-20.6-24.8-22.9-61.1-6.4-88.7 16.5-27.5 49.7-42.5 81.4-36 8.7 1.8 17 5 24.5 9.6 7.6 4.6 14.4 10.5 20 17.3 5.6 6.9 10 14.6 13 22.9 3 8.4 4.6 17.1 4.7 26 0.1 9.6 15.1 9.7 15 0-0.1-9.4-1.6-18.8-4.5-27.7-2.8-9-7.1-17.5-12.5-25.2-5.4-7.7-11.9-14.6-19.4-20.3-7.5-5.8-15.8-10.4-24.6-13.6-36.1-13.3-78.5-1.5-102.7 28.3-24.1 29.9-27.8 72.7-7.9 105.8 20 33.4 59.6 50.7 97.7 43.2 42.8-8.5 73.6-47.3 73.9-90.5 0.1-9.6-14.9-9.7-15 0z"/><path class="b" d="m168.5 43.4v-32c0-9.7-15-9.7-15 0v32c0 9.6 15 9.7 15 0z"/><path fill-rule="evenodd" class="b" d="m101.7 59.3l-16-27.7"/><path class="b" d="m108.2 55.5l-16-27.7c-4.9-8.4-17.8-0.8-13 7.6l16 27.7c4.8 8.3 17.8 0.8 13-7.6z"/><path fill-rule="evenodd" class="b" d="m58.3 102.7l-27.7-16"/><path class="b" d="m62.1 96.2l-27.7-16c-8.4-4.8-16 8.1-7.6 13l27.7 16c8.4 4.9 15.9-8.1 7.6-13z"/><path fill-rule="evenodd" class="b" d="m42.4 162h-32"/><path class="b" d="m42.4 154.5h-32c-9.7 0-9.7 15 0 15h32c9.6 0 9.7-15 0-15z"/><path fill-rule="evenodd" class="b" d="m58.3 221.3l-27.7 16"/><path class="b" d="m54.5 214.8l-27.7 16c-8.4 4.9-0.8 17.8 7.6 13l27.7-16c8.3-4.8 0.8-17.8-7.6-13z"/><path fill-rule="evenodd" class="b" d="m101.7 264.7l-16 27.7"/><path class="b" d="m95.2 260.9l-16 27.7c-4.8 8.4 8.1 16 13 7.6l16-27.7c4.9-8.4-8.1-15.9-13-7.6z"/><path fill-rule="evenodd" class="b" d="m161 280.6v32"/><path class="b" d="m153.5 280.6v32c0 9.7 15 9.7 15 0v-32c0-9.6-15-9.7-15 0z"/><path fill-rule="evenodd" class="b" d="m220.3 264.7l16 27.7"/><path class="b" d="m213.8 268.5l16 27.7c4.9 8.4 17.8 0.8 13-7.6l-16-27.7c-4.8-8.3-17.8-0.8-13 7.6z"/><path fill-rule="evenodd" class="b" d="m263.7 221.3l27.7 16"/><path class="b" d="m259.9 227.8l27.7 16c8.4 4.8 16-8.1 7.6-13l-27.7-16c-8.4-4.9-15.9 8.1-7.6 13z"/><path fill-rule="evenodd" class="b" d="m279.6 162h32"/><path class="b" d="m279.6 169.5h32c9.7 0 9.7-15 0-15h-32c-9.6 0-9.7 15 0 15z"/><path fill-rule="evenodd" class="b" d="m263.7 102.7l27.7-16"/><path class="b" d="m267.5 109.2l27.7-16c8.4-4.9 0.8-17.8-7.6-13l-27.7 16c-8.3 4.8-0.8 17.8 7.6 13z"/><path fill-rule="evenodd" class="b" d="m220.3 59.3l16-27.7"/><path class="b" d="m226.8 63.1l16-27.7c4.8-8.4-8.1-16-13-7.6l-16 27.7c-4.9 8.4 8.1 15.9 13 7.6z"/></svg>